<svg xmlns="http://www.w3.org/2000/svg" viewBox="0 0 20 20">
  <path fill="black" d="M10 1C6.13 1 3 4.13 3 8c0 2.38 1.19 4.47 3 5.74V16c0 .55.45 1 1 1h6c.55 0 1-.45 1-1v-2.26C15.81 12.47 17 10.38 17 8c0-3.87-3.13-7-7-7z"/>
  <ellipse cx="7.5" cy="8" rx="1.8" ry="2" fill="white"/>
  <ellipse cx="12.5" cy="8" rx="1.8" ry="2" fill="white"/>
  <rect x="9.2" y="10" width="1.6" height="1.5" rx="0.4" fill="white"/>
  <rect x="6" y="16.5" width="1.5" height="1.5" rx="0.3" fill="black"/>
  <rect x="8.5" y="16.5" width="1.5" height="1.5" rx="0.3" fill="black"/>
  <rect x="11" y="16.5" width="1.5" height="1.5" rx="0.3" fill="black"/>
</svg>
