<svg xmlns="http://www.w3.org/2000/svg" viewBox="0 0 20 20">
  <path fill="black" fill-rule="evenodd" d="
    M10 1C6.13 1 3 4.13 3 8c0 2.38 1.19 4.47 3 5.74V14.5c0 .55.45 1 1 1h6c.55 0 1-.45 1-1V13.74C15.81 12.47 17 10.38 17 8c0-3.87-3.13-7-7-7z
    M5.7 6.2c0-.99.81-1.8 1.8-1.8s1.8.81 1.8 1.8-.81 1.8-1.8 1.8-1.8-.81-1.8-1.8z
    M10.7 6.2c0-.99.81-1.8 1.8-1.8s1.8.81 1.8 1.8-.81 1.8-1.8 1.8-1.8-.81-1.8-1.8z
    M9.2 10c0-.28.22-.5.5-.5h.6c.28 0 .5.22.5.5v.8c0 .28-.22.5-.5.5h-.6c-.28 0-.5-.22-.5-.5V10z
    M6 15.5h1.5v1.5H6z
    M8.5 15.5H10v1.5H8.5z
    M12 15.5h1.5v1.5H12z
  "/>
</svg>
